<svg width="220" height="520" viewBox="0 0 220 520" fill="none" xmlns="http://www.w3.org/2000/svg">
  <g opacity="0.9" stroke="#5D5D5F" stroke-width="16" stroke-linecap="round" stroke-linejoin="round">
    <path d="M64 458C42 385 39 332 57 272C68 236 82 208 79 170C77 147 64 129 46 126C61 111 83 112 98 124C121 142 128 176 118 209C108 243 81 269 73 306C63 356 74 409 96 468" />
    <path d="M61 124C72 98 95 76 118 72C136 69 149 80 148 94C147 115 123 132 96 133" />
    <path d="M94 229C84 214 81 198 89 182C98 163 118 154 134 160C147 165 153 179 149 191C143 208 124 220 103 223" />
    <path d="M160 430C175 410 181 384 176 358C171 329 151 304 155 272C159 243 180 220 180 184C180 160 168 142 148 138C166 125 191 131 202 151C214 173 210 202 199 225C188 250 173 271 171 303C169 339 184 372 193 405" />
    <path d="M134 74C144 49 167 28 191 24C206 21 214 29 213 42C212 59 195 74 173 80" />
    <path d="M136 219C148 206 165 199 181 202C195 206 203 217 201 229C198 246 177 259 154 262" />
    <path d="M146 322C155 311 168 305 180 307C191 309 198 318 198 328C198 344 182 356 163 359" />
  </g>
</svg>
