<svg width="100%" height="100%" viewBox="0 0 517 295" version="1.1" xmlns="http://www.w3.org/2000/svg" xmlns:xlink="http://www.w3.org/1999/xlink" xml:space="preserve" xmlns:serif="http://www.serif.com/" style="fill-rule:evenodd;clip-rule:evenodd;stroke-linejoin:round;stroke-miterlimit:2;"><g><g><path d="M265.951,0l0,27.375l15.643,0l0,-11.732l46.928,0l0,46.928l-43.017,0l0,15.643l58.66,0l0,-78.213l-78.213,0Z" style="fill:#ad814e;"/><path d="M172.095,78.213l27.375,0l0,-15.643l-11.732,0l0,-46.928l46.928,0l0,43.017l15.643,0l0,-58.66l-78.213,0l0,78.213Z" style="fill:#ad814e;"/><path d="M250.308,172.069l0,-27.375l-15.643,0l0,11.732l-46.928,0l0,-46.928l43.017,0l0,-15.643l-58.66,0l0,78.213l78.213,0Z" style="fill:#ad814e;"/><path d="M344.164,93.856l-27.375,0l0,15.643l11.732,0l0,46.928l-46.928,0l0,-43.017l-15.643,0l0,58.66l78.213,0l0,-78.213Z" style="fill:#ad814e;"/><path d="M312.879,31.285l0,27.375l-15.643,0l-0,-11.732l-43.017,0l0,-15.643" style="fill:#ad814e;"/><path d="M312.879,140.784l-27.375,0l0,-15.643l11.732,-0l0,-43.017l15.643,0" style="fill:#ad814e;"/><path d="M203.381,140.784l-0,-27.375l15.643,0l0,11.732l43.017,0l0,15.643" style="fill:#ad814e;"/><path d="M203.345,31.285l27.375,-0l0,15.643l-11.732,0l-0,43.017l-15.643,0" style="fill:#ad814e;"/><rect x="265.951" y="50.839" width="15.643" height="39.107" style="fill:#ad814e;"/><path d="M293.326,109.498l-39.107,0l0,-15.643l39.107,0l0,15.643Z" style="fill:#ad814e;"/><rect x="234.666" y="82.124" width="15.643" height="39.107" style="fill:#ad814e;"/><path d="M222.934,62.57l39.107,0l0,15.643l-39.107,0l0,-15.643Z" style="fill:#ad814e;"/></g><g transform="matrix(21.099243,0,0,21.099243,14.53137,291.148314)"><path d="M0.081,-0l0,-0.728l0.164,0l0.159,0.417c0.005,0.012 0.01,0.028 0.015,0.047c0.006,0.019 0.012,0.039 0.018,0.062c0.006,0.022 0.012,0.044 0.018,0.065c0.006,0.021 0.01,0.041 0.015,0.058l-0.023,0c0.004,-0.016 0.009,-0.035 0.015,-0.056c0.006,-0.021 0.011,-0.043 0.018,-0.065c0.006,-0.022 0.012,-0.043 0.018,-0.062c0.006,-0.02 0.011,-0.035 0.016,-0.048l0.156,-0.417l0.165,0l0,0.728l-0.111,-0l0,-0.392c0,-0.015 0,-0.033 0,-0.054c0,-0.021 0.001,-0.043 0.001,-0.066c0,-0.023 0.001,-0.047 0.001,-0.071c0,-0.024 0.001,-0.047 0.001,-0.068l0.008,0c-0.007,0.024 -0.014,0.048 -0.021,0.073c-0.008,0.025 -0.015,0.05 -0.022,0.073c-0.007,0.023 -0.014,0.045 -0.021,0.064c-0.007,0.019 -0.012,0.035 -0.017,0.048l-0.149,0.392l-0.095,-0l-0.151,-0.392c-0.005,-0.012 -0.01,-0.028 -0.017,-0.047c-0.006,-0.019 -0.013,-0.04 -0.021,-0.063c-0.007,-0.023 -0.015,-0.048 -0.023,-0.073c-0.008,-0.025 -0.016,-0.05 -0.023,-0.075l0.01,0c0.001,0.02 0.001,0.041 0.002,0.065c0,0.023 0.001,0.047 0.001,0.071c0,0.024 0.001,0.046 0.001,0.068c0,0.021 0.001,0.04 0.001,0.056l0,0.392l-0.108,-0Z" style="fill-rule:nonzero;"/></g><g transform="matrix(21.099243,0,0,21.099243,33.791015,291.148314)"><path d="M0.384,0.01c-0.063,0 -0.119,-0.015 -0.169,-0.045c-0.05,-0.03 -0.089,-0.073 -0.117,-0.128c-0.028,-0.056 -0.043,-0.122 -0.043,-0.2c0,-0.078 0.014,-0.145 0.043,-0.2c0.028,-0.056 0.068,-0.099 0.117,-0.129c0.05,-0.03 0.106,-0.045 0.169,-0.045c0.063,0 0.119,0.015 0.168,0.045c0.049,0.03 0.088,0.073 0.117,0.129c0.028,0.056 0.043,0.123 0.043,0.2c0,0.077 -0.014,0.144 -0.043,0.2c-0.028,0.056 -0.067,0.099 -0.117,0.128c-0.049,0.03 -0.105,0.045 -0.168,0.045Zm0,-0.102c0.041,0 0.078,-0.01 0.111,-0.031c0.033,-0.021 0.059,-0.051 0.078,-0.092c0.019,-0.041 0.029,-0.09 0.029,-0.149c0,-0.059 -0.01,-0.109 -0.029,-0.15c-0.019,-0.041 -0.045,-0.071 -0.078,-0.092c-0.033,-0.021 -0.07,-0.031 -0.111,-0.031c-0.042,0 -0.079,0.01 -0.112,0.031c-0.033,0.021 -0.059,0.052 -0.078,0.092c-0.019,0.041 -0.029,0.09 -0.029,0.149c0,0.059 0.01,0.108 0.029,0.148c0.019,0.04 0.045,0.071 0.078,0.092c0.033,0.021 0.07,0.031 0.112,0.031Z" style="fill-rule:nonzero;"/></g><g transform="matrix(21.099243,0,0,21.099243,49.965314,291.148314)"><path d="M0.081,-0l0,-0.728l0.111,0l0,0.308l0.36,0l0,-0.308l0.112,0l0,0.728l-0.112,-0l0,-0.324l-0.36,0l0,0.324l-0.111,-0Z" style="fill-rule:nonzero;"/></g><g transform="matrix(21.099243,0,0,21.099243,65.671474,291.148314)"><path d="M0.536,-0.728l0,0.096l-0.344,0l0,0.632l-0.112,-0l0,-0.728l0.455,0Z" style="fill-rule:nonzero;"/></g><g transform="matrix(21.099243,0,0,21.099243,77.268845,291.148314)"><path d="M0.384,0.01c-0.063,0 -0.119,-0.015 -0.169,-0.045c-0.05,-0.03 -0.089,-0.073 -0.117,-0.128c-0.028,-0.056 -0.043,-0.122 -0.043,-0.2c0,-0.078 0.014,-0.145 0.043,-0.2c0.028,-0.056 0.068,-0.099 0.117,-0.129c0.05,-0.03 0.106,-0.045 0.169,-0.045c0.063,0 0.119,0.015 0.168,0.045c0.049,0.03 0.088,0.073 0.117,0.129c0.028,0.056 0.043,0.123 0.043,0.2c0,0.077 -0.014,0.144 -0.043,0.2c-0.028,0.056 -0.067,0.099 -0.117,0.128c-0.049,0.03 -0.105,0.045 -0.168,0.045Zm0,-0.102c0.041,0 0.078,-0.01 0.111,-0.031c0.033,-0.021 0.059,-0.051 0.078,-0.092c0.019,-0.041 0.029,-0.09 0.029,-0.149c0,-0.059 -0.01,-0.109 -0.029,-0.15c-0.019,-0.041 -0.045,-0.071 -0.078,-0.092c-0.033,-0.021 -0.07,-0.031 -0.111,-0.031c-0.042,0 -0.079,0.01 -0.112,0.031c-0.033,0.021 -0.059,0.052 -0.078,0.092c-0.019,0.041 -0.029,0.09 -0.029,0.149c0,0.059 0.01,0.108 0.029,0.148c0.019,0.04 0.045,0.071 0.078,0.092c0.033,0.021 0.07,0.031 0.112,0.031Z" style="fill-rule:nonzero;"/></g><g transform="matrix(21.099243,0,0,21.099243,93.443145,291.148314)"><path d="M0.044,-0l0,-0.096l0.02,0c0.023,0 0.042,-0.005 0.055,-0.016c0.014,-0.01 0.024,-0.029 0.032,-0.057c0.008,-0.028 0.013,-0.067 0.017,-0.119l0.036,-0.441l0.463,0l0,0.728l-0.112,-0l0,-0.632l-0.25,0l-0.03,0.366c-0.004,0.048 -0.011,0.089 -0.02,0.123c-0.009,0.034 -0.022,0.061 -0.037,0.082c-0.016,0.021 -0.036,0.037 -0.06,0.046c-0.024,0.01 -0.054,0.015 -0.089,0.015l-0.026,-0Z" style="fill-rule:nonzero;"/></g><g transform="matrix(21.099243,0,0,21.099243,109.237494,291.148314)"></g><g transform="matrix(21.099243,0,0,21.099243,114.860125,291.148314)"><path d="M0.629,-0.406l0,0.084l-0.49,0l0,-0.084l0.49,0Zm-0.245,0.416c-0.063,0 -0.119,-0.015 -0.169,-0.045c-0.05,-0.03 -0.089,-0.073 -0.117,-0.128c-0.028,-0.056 -0.043,-0.122 -0.043,-0.2c0,-0.078 0.014,-0.145 0.043,-0.2c0.028,-0.056 0.068,-0.099 0.117,-0.129c0.05,-0.03 0.106,-0.045 0.169,-0.045c0.063,0 0.119,0.015 0.168,0.045c0.049,0.03 0.088,0.073 0.117,0.129c0.028,0.056 0.043,0.123 0.043,0.2c0,0.077 -0.014,0.144 -0.043,0.2c-0.028,0.056 -0.067,0.099 -0.117,0.128c-0.049,0.03 -0.105,0.045 -0.168,0.045Zm0,-0.102c0.041,0 0.078,-0.01 0.111,-0.031c0.033,-0.021 0.059,-0.051 0.078,-0.092c0.019,-0.041 0.029,-0.09 0.029,-0.149c0,-0.059 -0.01,-0.109 -0.029,-0.15c-0.019,-0.041 -0.045,-0.071 -0.078,-0.092c-0.033,-0.021 -0.07,-0.031 -0.111,-0.031c-0.042,0 -0.079,0.01 -0.112,0.031c-0.033,0.021 -0.059,0.052 -0.078,0.092c-0.019,0.041 -0.029,0.09 -0.029,0.149c0,0.059 0.01,0.108 0.029,0.148c0.019,0.04 0.045,0.071 0.078,0.092c0.033,0.021 0.07,0.031 0.112,0.031Z" style="fill-rule:nonzero;"/></g><g transform="matrix(21.099243,0,0,21.099243,131.034424,291.148314)"><path d="M0.081,-0l0,-0.728l0.268,0c0.052,0 0.095,0.008 0.128,0.025c0.034,0.017 0.059,0.04 0.076,0.069c0.017,0.029 0.025,0.061 0.025,0.097c0,0.03 -0.006,0.056 -0.017,0.076c-0.011,0.021 -0.026,0.037 -0.045,0.05c-0.019,0.013 -0.039,0.022 -0.062,0.028l0,0.007c0.024,0.001 0.048,0.009 0.071,0.023c0.023,0.014 0.042,0.035 0.057,0.061c0.015,0.026 0.023,0.058 0.023,0.095c0,0.037 -0.009,0.07 -0.026,0.1c-0.017,0.03 -0.044,0.053 -0.08,0.07c-0.036,0.017 -0.083,0.026 -0.139,0.026l-0.28,-0Zm0.111,-0.096l0.157,0c0.052,0 0.09,-0.01 0.112,-0.03c0.023,-0.02 0.034,-0.045 0.034,-0.075c0,-0.023 -0.006,-0.045 -0.017,-0.063c-0.012,-0.019 -0.028,-0.034 -0.049,-0.045c-0.021,-0.011 -0.046,-0.017 -0.076,-0.017l-0.162,0l0,0.231Zm0,-0.317l0.146,0c0.024,0 0.047,-0.005 0.066,-0.014c0.02,-0.009 0.035,-0.023 0.047,-0.04c0.011,-0.017 0.017,-0.037 0.017,-0.061c0,-0.03 -0.01,-0.055 -0.031,-0.075c-0.021,-0.02 -0.053,-0.03 -0.096,-0.03l-0.149,0l0,0.22Z" style="fill-rule:nonzero;"/></g><g transform="matrix(21.099243,0,0,21.099243,144.891515,291.148314)"><path d="M0.676,-0l-0.113,-0l0,-0.388c0,-0.014 0,-0.033 0.001,-0.057c0.001,-0.024 0.002,-0.051 0.004,-0.083c0.002,-0.031 0.003,-0.065 0.005,-0.1l0.018,0c-0.022,0.041 -0.04,0.075 -0.056,0.103c-0.015,0.028 -0.029,0.053 -0.041,0.074c-0.012,0.021 -0.025,0.043 -0.039,0.064l-0.245,0.387l-0.129,-0l0,-0.728l0.113,0l0,0.414c0,0.016 -0,0.036 -0.001,0.06c-0.001,0.024 -0.002,0.049 -0.003,0.076c-0.002,0.027 -0.004,0.055 -0.006,0.082l-0.014,0c0.013,-0.029 0.025,-0.056 0.038,-0.081c0.013,-0.025 0.025,-0.047 0.036,-0.067c0.012,-0.02 0.022,-0.037 0.031,-0.051l0.274,-0.433l0.128,0l0,0.728Z" style="fill-rule:nonzero;"/></g><g transform="matrix(21.099243,0,0,21.099243,160.849258,291.148314)"><path d="M0.676,-0l-0.113,-0l0,-0.388c0,-0.014 0,-0.033 0.001,-0.057c0.001,-0.024 0.002,-0.051 0.004,-0.083c0.002,-0.031 0.003,-0.065 0.005,-0.1l0.018,0c-0.022,0.04 -0.04,0.075 -0.055,0.103c-0.015,0.028 -0.029,0.053 -0.041,0.074c-0.012,0.021 -0.025,0.043 -0.039,0.064l-0.246,0.387l-0.129,-0l0,-0.728l0.113,0l0,0.414c0,0.016 -0,0.036 -0.001,0.06c-0.001,0.024 -0.002,0.049 -0.003,0.076c-0.002,0.027 -0.004,0.055 -0.006,0.082l-0.014,0c0.013,-0.029 0.025,-0.056 0.038,-0.081c0.013,-0.025 0.025,-0.047 0.036,-0.067c0.012,-0.02 0.022,-0.037 0.031,-0.051l0.274,-0.433l0.128,0l0,0.728Zm-0.302,-0.801c-0.028,0 -0.053,-0.006 -0.076,-0.019c-0.023,-0.013 -0.041,-0.03 -0.054,-0.051c-0.014,-0.022 -0.02,-0.046 -0.02,-0.073l0.071,0c0,0.021 0.007,0.039 0.022,0.053c0.015,0.014 0.034,0.021 0.057,0.021c0.023,0 0.042,-0.007 0.057,-0.021c0.015,-0.014 0.022,-0.032 0.022,-0.053l0.072,0c0,0.027 -0.007,0.051 -0.02,0.072c-0.013,0.021 -0.031,0.039 -0.054,0.051c-0.023,0.013 -0.048,0.019 -0.077,0.019Z" style="fill-rule:nonzero;"/></g><g transform="matrix(21.099243,0,0,21.099243,176.807,291.148314)"><path d="M0.081,-0l0,-0.728l0.111,0l0,0.308l0.36,0l0,-0.308l0.112,0l0,0.728l-0.112,-0l0,-0.324l-0.36,0l0,0.324l-0.111,-0Z" style="fill-rule:nonzero;"/></g><g transform="matrix(21.099243,0,0,21.099243,192.513161,291.148314)"></g><g transform="matrix(21.099243,0,0,21.099243,198.135792,291.148314)"><path d="M0.293,-0l0,-0.29l-0.268,-0.438l0.13,0l0.137,0.232c0.015,0.025 0.029,0.05 0.04,0.073c0.012,0.023 0.024,0.052 0.036,0.087l-0.036,0c0.012,-0.035 0.024,-0.065 0.036,-0.088c0.012,-0.024 0.024,-0.048 0.039,-0.072l0.135,-0.232l0.129,0l-0.267,0.438l0,0.29l-0.111,-0Z" style="fill-rule:nonzero;"/></g><g transform="matrix(21.099243,0,0,21.099243,212.823241,291.148314)"><path d="M0.081,-0l0,-0.728l0.111,0l0,0.308l0.36,0l0,-0.308l0.112,0l0,0.728l-0.112,-0l0,-0.324l-0.36,0l0,0.324l-0.111,-0Z" style="fill-rule:nonzero;"/></g><g transform="matrix(21.099243,0,0,21.099243,228.529401,291.148314)"><path d="M0.351,0.01c-0.04,0 -0.078,-0.006 -0.112,-0.018c-0.034,-0.012 -0.064,-0.029 -0.091,-0.051c-0.026,-0.022 -0.048,-0.048 -0.064,-0.078c-0.017,-0.03 -0.028,-0.063 -0.034,-0.099l0.112,0c0.005,0.024 0.013,0.044 0.024,0.062c0.011,0.018 0.026,0.033 0.042,0.045c0.017,0.012 0.036,0.021 0.056,0.027c0.021,0.006 0.043,0.009 0.066,0.009c0.042,0 0.079,-0.01 0.111,-0.031c0.033,-0.021 0.058,-0.051 0.077,-0.091c0.019,-0.04 0.028,-0.09 0.028,-0.15c0,-0.059 -0.009,-0.109 -0.028,-0.15c-0.019,-0.041 -0.044,-0.071 -0.077,-0.092c-0.033,-0.021 -0.07,-0.031 -0.111,-0.031c-0.023,0 -0.045,0.003 -0.066,0.009c-0.021,0.006 -0.04,0.015 -0.056,0.027c-0.017,0.012 -0.031,0.027 -0.042,0.045c-0.011,0.018 -0.02,0.039 -0.024,0.063l-0.112,0c0.006,-0.039 0.018,-0.073 0.035,-0.103c0.018,-0.03 0.04,-0.056 0.066,-0.077c0.027,-0.021 0.057,-0.037 0.09,-0.048c0.034,-0.011 0.07,-0.017 0.108,-0.017c0.063,0 0.119,0.015 0.168,0.045c0.049,0.03 0.088,0.073 0.117,0.129c0.028,0.056 0.043,0.123 0.043,0.2c0,0.077 -0.014,0.144 -0.043,0.199c-0.028,0.056 -0.067,0.099 -0.116,0.129c-0.049,0.03 -0.105,0.045 -0.168,0.045Zm-0.073,-0.333l0,-0.095l0.322,0l0,0.095l-0.322,0Z" style="fill-rule:nonzero;"/></g><g transform="matrix(21.099243,0,0,21.099243,243.367894,291.148314)"><path d="M0.044,-0.632l0,-0.096l0.565,0l0,0.096l-0.226,0l0,0.632l-0.112,-0l0,-0.632l-0.227,0Z" style="fill-rule:nonzero;"/></g><g transform="matrix(21.099243,0,0,21.099243,257.143386,291.148314)"></g><g transform="matrix(21.099243,0,0,21.099243,262.766018,291.148314)"><path d="M0.351,0.01c-0.04,0 -0.078,-0.006 -0.112,-0.018c-0.034,-0.012 -0.064,-0.029 -0.091,-0.051c-0.026,-0.022 -0.048,-0.048 -0.064,-0.078c-0.017,-0.03 -0.028,-0.063 -0.034,-0.099l0.112,0c0.005,0.024 0.013,0.044 0.024,0.062c0.011,0.018 0.026,0.033 0.042,0.045c0.017,0.012 0.036,0.021 0.056,0.027c0.021,0.006 0.043,0.009 0.066,0.009c0.042,0 0.079,-0.01 0.111,-0.031c0.033,-0.021 0.058,-0.051 0.077,-0.091c0.019,-0.04 0.028,-0.09 0.028,-0.15c0,-0.059 -0.009,-0.109 -0.028,-0.15c-0.019,-0.041 -0.044,-0.071 -0.077,-0.092c-0.033,-0.021 -0.07,-0.031 -0.111,-0.031c-0.023,0 -0.045,0.003 -0.066,0.009c-0.021,0.006 -0.04,0.015 -0.056,0.027c-0.017,0.012 -0.031,0.027 -0.042,0.045c-0.011,0.018 -0.02,0.039 -0.024,0.063l-0.112,0c0.006,-0.039 0.018,-0.073 0.035,-0.103c0.018,-0.03 0.04,-0.056 0.066,-0.077c0.027,-0.021 0.057,-0.037 0.09,-0.048c0.034,-0.011 0.07,-0.017 0.108,-0.017c0.063,0 0.119,0.015 0.168,0.045c0.049,0.03 0.088,0.073 0.117,0.129c0.028,0.056 0.043,0.123 0.043,0.2c0,0.077 -0.014,0.144 -0.043,0.199c-0.028,0.056 -0.067,0.099 -0.116,0.129c-0.049,0.03 -0.105,0.045 -0.168,0.045Zm-0.073,-0.333l0,-0.095l0.322,0l0,0.095l-0.322,0Z" style="fill-rule:nonzero;"/></g><g transform="matrix(21.099243,0,0,21.099243,278.243258,291.148314)"><path d="M0.044,0.156l0,-0.252l0.062,0c0.012,-0.01 0.024,-0.023 0.034,-0.039c0.011,-0.016 0.02,-0.037 0.029,-0.062c0.009,-0.025 0.017,-0.056 0.023,-0.092c0.007,-0.037 0.012,-0.081 0.016,-0.132l0.025,-0.307l0.473,0l0,0.632l0.085,0l0,0.252l-0.108,0l0,-0.156l-0.531,-0l0,0.156l-0.108,0Zm0.191,-0.252l0.361,0l0,-0.536l-0.259,0l-0.017,0.211c-0.004,0.05 -0.01,0.096 -0.017,0.138c-0.007,0.042 -0.017,0.079 -0.028,0.111c-0.011,0.032 -0.024,0.057 -0.039,0.075Z" style="fill-rule:nonzero;"/></g><g transform="matrix(21.099243,0,0,21.099243,296.34759,291.148314)"><path d="M0.044,-0l0,-0.096l0.02,0c0.023,0 0.042,-0.005 0.055,-0.016c0.014,-0.01 0.024,-0.029 0.032,-0.057c0.008,-0.028 0.013,-0.067 0.017,-0.119l0.036,-0.441l0.463,0l0,0.728l-0.112,-0l0,-0.632l-0.25,0l-0.03,0.366c-0.004,0.048 -0.011,0.089 -0.02,0.123c-0.009,0.034 -0.022,0.061 -0.037,0.082c-0.016,0.021 -0.036,0.037 -0.06,0.046c-0.024,0.01 -0.054,0.015 -0.089,0.015l-0.026,-0Z" style="fill-rule:nonzero;"/></g><g transform="matrix(21.099243,0,0,21.099243,312.141939,291.148314)"><path d="M0.351,0.01c-0.04,0 -0.078,-0.006 -0.112,-0.018c-0.034,-0.012 -0.064,-0.029 -0.091,-0.051c-0.026,-0.022 -0.048,-0.048 -0.064,-0.078c-0.017,-0.03 -0.028,-0.063 -0.034,-0.099l0.112,0c0.005,0.024 0.013,0.044 0.024,0.062c0.011,0.018 0.026,0.033 0.042,0.045c0.017,0.012 0.036,0.021 0.056,0.027c0.021,0.006 0.043,0.009 0.066,0.009c0.042,0 0.079,-0.01 0.111,-0.031c0.033,-0.021 0.058,-0.051 0.077,-0.091c0.019,-0.04 0.028,-0.09 0.028,-0.15c0,-0.059 -0.009,-0.109 -0.028,-0.15c-0.019,-0.041 -0.044,-0.071 -0.077,-0.092c-0.033,-0.021 -0.07,-0.031 -0.111,-0.031c-0.023,0 -0.045,0.003 -0.066,0.009c-0.021,0.006 -0.04,0.015 -0.056,0.027c-0.017,0.012 -0.031,0.027 -0.042,0.045c-0.011,0.018 -0.02,0.039 -0.024,0.063l-0.112,0c0.006,-0.039 0.018,-0.073 0.035,-0.103c0.018,-0.03 0.04,-0.056 0.066,-0.077c0.027,-0.021 0.057,-0.037 0.09,-0.048c0.034,-0.011 0.07,-0.017 0.108,-0.017c0.063,0 0.119,0.015 0.168,0.045c0.049,0.03 0.088,0.073 0.117,0.129c0.028,0.056 0.043,0.123 0.043,0.2c0,0.077 -0.014,0.144 -0.043,0.199c-0.028,0.056 -0.067,0.099 -0.116,0.129c-0.049,0.03 -0.105,0.045 -0.168,0.045Zm-0.073,-0.333l0,-0.095l0.322,0l0,0.095l-0.322,0Z" style="fill-rule:nonzero;"/></g><g transform="matrix(21.099243,0,0,21.099243,327.619179,291.148314)"><path d="M0.044,-0l0,-0.096l0.02,0c0.023,0 0.042,-0.005 0.055,-0.016c0.014,-0.01 0.024,-0.029 0.032,-0.057c0.008,-0.028 0.013,-0.067 0.017,-0.119l0.036,-0.441l0.463,0l0,0.728l-0.112,-0l0,-0.632l-0.25,0l-0.03,0.366c-0.004,0.048 -0.011,0.089 -0.02,0.123c-0.009,0.034 -0.022,0.061 -0.037,0.082c-0.016,0.021 -0.036,0.037 -0.06,0.046c-0.024,0.01 -0.054,0.015 -0.089,0.015l-0.026,-0Z" style="fill-rule:nonzero;"/></g><g transform="matrix(21.099243,0,0,21.099243,343.413528,291.148314)"><path d="M0.676,-0l-0.113,-0l0,-0.388c0,-0.014 0,-0.033 0.001,-0.057c0.001,-0.024 0.002,-0.051 0.004,-0.083c0.002,-0.031 0.003,-0.065 0.005,-0.1l0.018,0c-0.022,0.041 -0.04,0.075 -0.056,0.103c-0.015,0.028 -0.029,0.053 -0.041,0.074c-0.012,0.021 -0.025,0.043 -0.039,0.064l-0.245,0.387l-0.129,-0l0,-0.728l0.113,0l0,0.414c0,0.016 -0,0.036 -0.001,0.06c-0.001,0.024 -0.002,0.049 -0.003,0.076c-0.002,0.027 -0.004,0.055 -0.006,0.082l-0.014,0c0.013,-0.029 0.025,-0.056 0.038,-0.081c0.013,-0.025 0.025,-0.047 0.036,-0.067c0.012,-0.02 0.022,-0.037 0.031,-0.051l0.274,-0.433l0.128,0l0,0.728Z" style="fill-rule:nonzero;"/></g><g transform="matrix(21.099243,0,0,21.099243,359.371271,291.148314)"><path d="M0.676,-0l-0.113,-0l0,-0.388c0,-0.014 0,-0.033 0.001,-0.057c0.001,-0.024 0.002,-0.051 0.004,-0.083c0.002,-0.031 0.003,-0.065 0.005,-0.1l0.018,0c-0.022,0.04 -0.04,0.075 -0.055,0.103c-0.015,0.028 -0.029,0.053 -0.041,0.074c-0.012,0.021 -0.025,0.043 -0.039,0.064l-0.246,0.387l-0.129,-0l0,-0.728l0.113,0l0,0.414c0,0.016 -0,0.036 -0.001,0.06c-0.001,0.024 -0.002,0.049 -0.003,0.076c-0.002,0.027 -0.004,0.055 -0.006,0.082l-0.014,0c0.013,-0.029 0.025,-0.056 0.038,-0.081c0.013,-0.025 0.025,-0.047 0.036,-0.067c0.012,-0.02 0.022,-0.037 0.031,-0.051l0.274,-0.433l0.128,0l0,0.728Zm-0.302,-0.801c-0.028,0 -0.053,-0.006 -0.076,-0.019c-0.023,-0.013 -0.041,-0.03 -0.054,-0.051c-0.014,-0.022 -0.02,-0.046 -0.02,-0.073l0.071,0c0,0.021 0.007,0.039 0.022,0.053c0.015,0.014 0.034,0.021 0.057,0.021c0.023,0 0.042,-0.007 0.057,-0.021c0.015,-0.014 0.022,-0.032 0.022,-0.053l0.072,0c0,0.027 -0.007,0.051 -0.02,0.072c-0.013,0.021 -0.031,0.039 -0.054,0.051c-0.023,0.013 -0.048,0.019 -0.077,0.019Z" style="fill-rule:nonzero;"/></g><g transform="matrix(21.099243,0,0,21.099243,375.329013,291.148314)"><path d="M0.081,-0l0,-0.728l0.111,0l0,0.308l0.36,0l0,-0.308l0.112,0l0,0.728l-0.112,-0l0,-0.324l-0.36,0l0,0.324l-0.111,-0Z" style="fill-rule:nonzero;"/></g><g transform="matrix(21.099243,0,0,21.099243,391.035174,291.148314)"></g><g transform="matrix(21.099243,0,0,21.099243,396.657805,291.148314)"><path d="M0.044,0.156l0,-0.252l0.062,0c0.012,-0.01 0.024,-0.023 0.034,-0.039c0.011,-0.016 0.02,-0.037 0.029,-0.062c0.009,-0.025 0.017,-0.056 0.023,-0.092c0.007,-0.037 0.012,-0.081 0.016,-0.132l0.025,-0.307l0.473,0l0,0.632l0.085,0l0,0.252l-0.108,0l0,-0.156l-0.531,-0l0,0.156l-0.108,0Zm0.191,-0.252l0.361,0l0,-0.536l-0.259,0l-0.017,0.211c-0.004,0.05 -0.01,0.096 -0.017,0.138c-0.007,0.042 -0.017,0.079 -0.028,0.111c-0.011,0.032 -0.024,0.057 -0.039,0.075Z" style="fill-rule:nonzero;"/></g><g transform="matrix(21.099243,0,0,21.099243,414.288228,291.148314)"><path d="M0.351,0.01c-0.04,0 -0.078,-0.006 -0.112,-0.018c-0.034,-0.012 -0.064,-0.029 -0.091,-0.051c-0.026,-0.022 -0.048,-0.048 -0.064,-0.078c-0.017,-0.03 -0.028,-0.063 -0.034,-0.099l0.112,0c0.005,0.024 0.013,0.044 0.024,0.062c0.011,0.018 0.026,0.033 0.042,0.045c0.017,0.012 0.036,0.021 0.056,0.027c0.021,0.006 0.043,0.009 0.066,0.009c0.042,0 0.079,-0.01 0.111,-0.031c0.033,-0.021 0.058,-0.051 0.077,-0.091c0.019,-0.04 0.028,-0.09 0.028,-0.15c0,-0.059 -0.009,-0.109 -0.028,-0.15c-0.019,-0.041 -0.044,-0.071 -0.077,-0.092c-0.033,-0.021 -0.07,-0.031 -0.111,-0.031c-0.023,0 -0.045,0.003 -0.066,0.009c-0.021,0.006 -0.04,0.015 -0.056,0.027c-0.017,0.012 -0.031,0.027 -0.042,0.045c-0.011,0.018 -0.02,0.039 -0.024,0.063l-0.112,0c0.006,-0.039 0.018,-0.073 0.035,-0.103c0.018,-0.03 0.04,-0.056 0.066,-0.077c0.027,-0.021 0.057,-0.037 0.09,-0.048c0.034,-0.011 0.07,-0.017 0.108,-0.017c0.063,0 0.119,0.015 0.168,0.045c0.049,0.03 0.088,0.073 0.117,0.129c0.028,0.056 0.043,0.123 0.043,0.2c0,0.077 -0.014,0.144 -0.043,0.199c-0.028,0.056 -0.067,0.099 -0.116,0.129c-0.049,0.03 -0.105,0.045 -0.168,0.045Zm-0.073,-0.333l0,-0.095l0.322,0l0,0.095l-0.322,0Z" style="fill-rule:nonzero;"/></g><g transform="matrix(21.099243,0,0,21.099243,429.765468,291.148314)"><path d="M0.044,-0l0,-0.096l0.02,0c0.023,0 0.042,-0.005 0.055,-0.016c0.014,-0.01 0.024,-0.029 0.032,-0.057c0.008,-0.028 0.013,-0.067 0.017,-0.119l0.036,-0.441l0.463,0l0,0.728l-0.112,-0l0,-0.632l-0.25,0l-0.03,0.366c-0.004,0.048 -0.011,0.089 -0.02,0.123c-0.009,0.034 -0.022,0.061 -0.037,0.082c-0.016,0.021 -0.036,0.037 -0.06,0.046c-0.024,0.01 -0.054,0.015 -0.089,0.015l-0.026,-0Z" style="fill-rule:nonzero;"/></g><g transform="matrix(21.099243,0,0,21.099243,445.559818,291.148314)"><path d="M0.536,-0.728l0,0.096l-0.344,0l0,0.632l-0.112,-0l0,-0.728l0.455,0Z" style="fill-rule:nonzero;"/></g><g transform="matrix(21.099243,0,0,21.099243,458.135913,291.148314)"><path d="M0.293,-0l0,-0.29l-0.268,-0.438l0.13,0l0.137,0.232c0.015,0.025 0.029,0.05 0.04,0.073c0.012,0.023 0.024,0.052 0.036,0.087l-0.036,0c0.012,-0.035 0.024,-0.065 0.036,-0.088c0.012,-0.024 0.024,-0.048 0.039,-0.072l0.135,-0.232l0.129,0l-0.267,0.438l0,0.29l-0.111,-0Z" style="fill-rule:nonzero;"/></g><g transform="matrix(21.099243,0,0,21.099243,472.823362,291.148314)"><path d="M0.293,-0l0,-0.29l-0.268,-0.438l0.13,0l0.137,0.232c0.015,0.025 0.029,0.05 0.04,0.073c0.012,0.023 0.024,0.052 0.036,0.087l-0.036,0c0.012,-0.035 0.024,-0.065 0.036,-0.088c0.012,-0.024 0.024,-0.048 0.039,-0.072l0.135,-0.232l0.129,0l-0.267,0.438l0,0.29l-0.111,-0Z" style="fill-rule:nonzero;"/></g><g transform="matrix(21.099243,0,0,21.099243,487.51081,291.148314)"><path d="M0.081,-0l0,-0.728l0.261,0c0.056,0 0.103,0.01 0.14,0.031c0.037,0.021 0.065,0.049 0.084,0.084c0.019,0.035 0.028,0.076 0.028,0.121c0,0.045 -0.009,0.085 -0.028,0.121c-0.019,0.036 -0.047,0.064 -0.084,0.084c-0.037,0.021 -0.084,0.031 -0.141,0.031l-0.178,0l0,-0.094l0.167,0c0.036,0 0.065,-0.006 0.087,-0.019c0.022,-0.012 0.038,-0.029 0.049,-0.051c0.01,-0.021 0.015,-0.046 0.015,-0.073c0,-0.027 -0.005,-0.052 -0.015,-0.073c-0.01,-0.021 -0.027,-0.038 -0.049,-0.05c-0.022,-0.012 -0.052,-0.018 -0.088,-0.018l-0.137,0l0,0.632l-0.111,-0Z" style="fill-rule:nonzero;"/></g><g transform="matrix(21.099243,0,0,21.099243,501.05306,291.148314)"></g><g transform="matrix(66.54578,0,0,66.54578,-2.436979,260.239869)"><path d="M0.037,-0.604l0,-0.124l0.594,0l0,0.124l-0.222,0l0,0.604l-0.149,-0l0,-0.604l-0.223,0Z" style="fill-rule:nonzero;"/></g><g transform="matrix(66.54578,0,0,66.54578,36.07893,260.239869)"><path d="M0.024,-0l0.249,-0.728l0.195,0l0.255,0.728l-0.166,-0l-0.117,-0.351c-0.014,-0.045 -0.028,-0.095 -0.043,-0.149c-0.014,-0.054 -0.03,-0.113 -0.046,-0.177l0.032,0c-0.015,0.064 -0.03,0.123 -0.043,0.177c-0.014,0.054 -0.027,0.103 -0.04,0.148l-0.112,0.351l-0.165,-0Zm0.155,-0.169l0,-0.117l0.388,0l0,0.117l-0.388,0Z" style="fill-rule:nonzero;"/></g><g transform="matrix(66.54578,0,0,66.54578,85.76391,260.239869)"><path d="M0.066,-0l0,-0.728l0.289,0c0.053,0 0.098,0.008 0.134,0.024c0.036,0.016 0.062,0.038 0.08,0.066c0.018,0.028 0.027,0.06 0.027,0.097c0,0.029 -0.006,0.054 -0.017,0.075c-0.011,0.021 -0.027,0.039 -0.047,0.052c-0.02,0.014 -0.042,0.023 -0.067,0.029l0,0.007c0.027,0.001 0.053,0.009 0.077,0.023c0.024,0.014 0.044,0.035 0.059,0.061c0.015,0.026 0.023,0.057 0.023,0.093c0,0.038 -0.009,0.072 -0.028,0.103c-0.019,0.03 -0.047,0.054 -0.084,0.072c-0.037,0.017 -0.083,0.026 -0.138,0.026l-0.307,-0Zm0.149,-0.123l0.129,0c0.044,0 0.076,-0.008 0.096,-0.025c0.02,-0.017 0.03,-0.039 0.03,-0.066c0,-0.021 -0.005,-0.039 -0.015,-0.055c-0.01,-0.016 -0.024,-0.028 -0.042,-0.037c-0.018,-0.009 -0.04,-0.013 -0.065,-0.013l-0.133,0l0,0.197Zm0,-0.299l0.118,0c0.021,0 0.04,-0.004 0.057,-0.011c0.017,-0.008 0.03,-0.019 0.04,-0.033c0.01,-0.014 0.014,-0.031 0.014,-0.051c0,-0.026 -0.009,-0.048 -0.028,-0.064c-0.019,-0.017 -0.045,-0.025 -0.08,-0.025l-0.121,0l0,0.184Z" style="fill-rule:nonzero;"/></g><g transform="matrix(66.54578,0,0,66.54578,129.795881,260.239869)"><path d="M0.024,-0l0.249,-0.728l0.195,0l0.255,0.728l-0.166,-0l-0.117,-0.351c-0.014,-0.045 -0.028,-0.095 -0.043,-0.149c-0.014,-0.054 -0.03,-0.113 -0.046,-0.177l0.032,0c-0.015,0.064 -0.03,0.123 -0.043,0.177c-0.014,0.054 -0.027,0.103 -0.04,0.148l-0.112,0.351l-0.165,-0Zm0.155,-0.169l0,-0.117l0.388,0l0,0.117l-0.388,0Z" style="fill-rule:nonzero;"/></g><g transform="matrix(66.54578,0,0,66.54578,179.48086,260.239869)"><path d="M0.066,-0l0,-0.728l0.149,0l0,0.294l0.317,0l0,-0.294l0.149,0l0,0.728l-0.149,-0l0,-0.31l-0.317,0l0,0.31l-0.149,-0Z" style="fill-rule:nonzero;"/></g><g transform="matrix(66.54578,0,0,66.54578,229.18093,260.239869)"></g><g transform="matrix(66.54578,0,0,66.54578,244.949281,260.239869)"><path d="M0.037,-0.604l0,-0.124l0.594,0l0,0.124l-0.222,0l0,0.604l-0.149,-0l0,-0.604l-0.223,0Z" style="fill-rule:nonzero;"/></g><g transform="matrix(66.54578,0,0,66.54578,283.46519,260.239869)"><path d="M0.024,-0l0.249,-0.728l0.195,0l0.255,0.728l-0.166,-0l-0.117,-0.351c-0.014,-0.045 -0.028,-0.095 -0.043,-0.149c-0.014,-0.054 -0.03,-0.113 -0.046,-0.177l0.032,0c-0.015,0.064 -0.03,0.123 -0.043,0.177c-0.014,0.054 -0.027,0.103 -0.04,0.148l-0.112,0.351l-0.165,-0Zm0.155,-0.169l0,-0.117l0.388,0l0,0.117l-0.388,0Z" style="fill-rule:nonzero;"/></g><g transform="matrix(66.54578,0,0,66.54578,333.15017,260.239869)"><path d="M0.066,-0l0,-0.728l0.149,0l0,0.294l0.317,0l0,-0.294l0.149,0l0,0.728l-0.149,-0l0,-0.31l-0.317,0l0,0.31l-0.149,-0Z" style="fill-rule:nonzero;"/></g><g transform="matrix(66.54578,0,0,66.54578,382.85024,260.239869)"><path d="M0.384,0.01c-0.064,0 -0.122,-0.015 -0.173,-0.044c-0.051,-0.029 -0.091,-0.072 -0.121,-0.127c-0.029,-0.056 -0.044,-0.123 -0.044,-0.202c0,-0.079 0.015,-0.147 0.044,-0.202c0.03,-0.056 0.07,-0.098 0.121,-0.128c0.051,-0.029 0.109,-0.044 0.172,-0.044c0.041,0 0.08,0.006 0.115,0.017c0.036,0.012 0.067,0.028 0.095,0.051c0.028,0.022 0.05,0.049 0.068,0.081c0.018,0.032 0.029,0.068 0.035,0.109l-0.151,0c-0.003,-0.02 -0.01,-0.038 -0.019,-0.053c-0.009,-0.015 -0.021,-0.029 -0.035,-0.04c-0.014,-0.011 -0.03,-0.019 -0.048,-0.025c-0.018,-0.006 -0.037,-0.009 -0.058,-0.009c-0.038,0 -0.071,0.009 -0.1,0.028c-0.029,0.019 -0.051,0.046 -0.066,0.082c-0.016,0.036 -0.023,0.08 -0.023,0.131c0,0.052 0.008,0.097 0.024,0.132c0.016,0.036 0.038,0.063 0.066,0.081c0.028,0.018 0.061,0.027 0.099,0.027c0.021,0 0.04,-0.003 0.058,-0.009c0.018,-0.006 0.034,-0.014 0.048,-0.025c0.014,-0.011 0.026,-0.024 0.035,-0.04c0.009,-0.016 0.016,-0.033 0.019,-0.053l0.151,0c-0.004,0.034 -0.014,0.066 -0.03,0.097c-0.016,0.031 -0.038,0.059 -0.064,0.083c-0.027,0.024 -0.058,0.044 -0.095,0.058c-0.037,0.014 -0.078,0.021 -0.124,0.021Z" style="fill-rule:nonzero;"/></g><g transform="matrix(66.54578,0,0,66.54578,430.254335,260.239869)"><path d="M0.024,-0l0.249,-0.728l0.195,0l0.255,0.728l-0.166,-0l-0.117,-0.351c-0.014,-0.045 -0.028,-0.095 -0.043,-0.149c-0.014,-0.054 -0.03,-0.113 -0.046,-0.177l0.032,0c-0.015,0.064 -0.03,0.123 -0.043,0.177c-0.014,0.054 -0.027,0.103 -0.04,0.148l-0.112,0.351l-0.165,-0Zm0.155,-0.169l0,-0.117l0.388,0l0,0.117l-0.388,0Z" style="fill-rule:nonzero;"/></g><g transform="matrix(66.54578,0,0,66.54578,479.939315,260.239869)"><path d="M0.546,-0.728l0,0.123l-0.331,0l0,0.604l-0.149,-0l0,-0.728l0.48,0Z" style="fill-rule:nonzero;"/></g><g transform="matrix(66.54578,0,0,66.54578,518.70677,260.239869)"></g></g></svg>
