<svg width="100%" height="100%" viewBox="0 0 235 235" version="1.1" xmlns="http://www.w3.org/2000/svg" xmlns:xlink="http://www.w3.org/1999/xlink" xml:space="preserve" style="fill-rule:evenodd;clip-rule:evenodd;stroke-linejoin:round;stroke-miterlimit:2;">
  <g transform="matrix(1,0,0,1,-2439.141769,-6022.06372)">
    <g transform="matrix(0.565995,0,0,0.565995,-497.681106,5112.045861)">
      <path d="M5375.32,1607.82L5375.32,1742.543L5333.867,1742.543L5333.867,1628.547L5209.507,1628.547L5209.507,1752.906L5240.597,1752.906L5240.597,1794.36L5188.781,1794.36L5188.781,1607.82L5375.32,1607.82ZM5603.313,1794.36L5468.59,1794.36L5468.59,1752.906L5582.586,1752.906L5582.586,1628.547L5458.227,1628.547L5458.227,1659.637L5416.773,1659.637L5416.773,1607.82L5603.313,1607.82L5603.313,1794.36ZM5416.773,2022.353L5416.773,1887.63L5458.227,1887.63L5458.227,2001.626L5582.586,2001.626L5582.586,1877.266L5551.496,1877.266L5551.496,1835.813L5603.313,1835.813L5603.313,2022.353L5416.773,2022.353ZM5188.781,1835.813L5323.504,1835.813L5323.504,1877.266L5209.507,1877.266L5209.507,2001.626L5333.867,2001.626L5333.867,1970.536L5375.32,1970.536L5375.32,2022.353L5188.781,2022.353L5188.781,1835.813ZM5302.777,1752.906L5406.41,1752.906L5406.41,1794.36L5302.777,1794.36L5302.777,1752.906ZM5333.867,1908.356L5333.867,1804.723L5375.32,1804.723L5375.32,1908.356L5333.867,1908.356ZM5458.227,1721.817L5458.227,1825.45L5416.773,1825.45L5416.773,1721.817L5458.227,1721.817ZM5489.317,1877.266L5385.683,1877.266L5385.683,1835.813L5489.317,1835.813L5489.317,1877.266ZM5541.133,1960.173L5468.59,1960.173L5468.59,1918.719L5499.68,1918.719L5499.68,1804.723L5541.133,1804.723L5541.133,1960.173ZM5250.867,1670L5323.41,1670L5323.41,1711.453L5292.32,1711.453L5292.32,1825.45L5250.867,1825.45L5250.867,1670ZM5541.133,1670L5541.133,1742.543L5499.68,1742.543L5499.68,1711.453L5385.683,1711.453L5385.683,1670L5541.133,1670ZM5250.96,1960.173L5250.96,1887.63L5292.414,1887.63L5292.414,1918.719L5406.41,1918.719L5406.41,1960.173L5250.96,1960.173Z" style="fill:rgb(185,147,103);"/>
    </g>
  </g>
</svg>
